<svg xmlns="http://www.w3.org/2000/svg" width="260" height="71" fill="none" viewBox="0 0 260 71"><path fill="white" fill-rule="evenodd" d="M156.07 15.66q7.56 0 11.4 5.77 3.81 5.76 3.82 15.95 0 10.55-3.96 16.44-3.94 5.9-11.52 5.9c-2.48.06-4.94-.53-7.12-1.72a12 12 0 0 1-4.8-5.36 23 23 0 0 1-1.53-4.27h-.44v22.09h-12.05V16.82h10.3l1.57 11.25h.38q1.3-5.69 4.06-8.54 3.75-3.87 9.9-3.87m55.84 0q6.44 0 10.65 2.5a16 16 0 0 1 6.32 6.91 23 23 0 0 1 2.1 10.11v2.6q0 1.19-.17 2.95h-28.43q.49 3.75 2.22 5.8 2.42 2.8 7.33 2.81 4.13 0 5.9-1.76a9.6 9.6 0 0 0 2.44-4.22l10.38 2.9a21 21 0 0 1-3.3 6.82 15.3 15.3 0 0 1-6.07 4.8q-3.82 1.74-9.54 1.75-6.6 0-11.39-2.77a18.7 18.7 0 0 1-7.38-7.79 25 25 0 0 1-2.6-11.77q0-10.12 5.72-15.88 5.7-5.76 15.82-5.76m-104.64.17q9.5 0 13.7 4.4 4.23 4.4 4.23 12.4v25.82H115l-1.55-10.2h-.41a17 17 0 0 1-3.01 6.42q-3.64 4.66-10.42 4.66-5.46.02-9.06-2.98t-3.6-9.16q0-6.01 3.6-9.68t11.87-3.66h10.82v-1.11q0-3.33-1.54-5.14-1.55-1.83-4.97-1.83a7.5 7.5 0 0 0-4.84 1.5q-1.83 1.5-2.44 5.09L88.2 30.78c.3-2.72 1.16-5.34 2.55-7.7a13.7 13.7 0 0 1 6.07-5.31q4.04-1.95 10.45-1.94M41.68 48.28v10.2H0v-10.2zm145.17 10.2h-12.04V16.8h12.04zM84.14 27 61.02 48.16l.04.12H84.5v10.2H46.35v-10.2L69.24 27.1l-.04-.1H47.05V16.8h37.09zm162.23 1.06h.35q1.1-5.07 3.21-7.65 2.94-3.6 8.05-3.6H260v11.94h-4.57q-5.1 0-6.99 2.16t-1.9 6.2v21.37H234.5V16.8h10.29zM102.62 41.77a4 4 0 0 0-2.9 1.06 3.8 3.8 0 0 0-1.06 2.81 3.7 3.7 0 0 0 1.28 2.9q1.26 1.14 4.53 1.14 3.94 0 6.37-2.02a6.5 6.5 0 0 0 2.42-5.19v-.7zm48.08-15.3q-4.12-.03-6.46 2.72t-2.33 7.94v.8q0 5.1 2.33 8.04a7.8 7.8 0 0 0 6.46 2.94q4.5 0 6.6-3.05 2.13-3.03 2.1-8.4 0-5.19-2.06-8.1-2.07-2.89-6.64-2.9m60.87-.87q-4.66 0-7.04 2.8a10 10 0 0 0-1.93 4.4h17.28q-.99-7.2-8.31-7.2M180.96 0za6.5 6.5 0 0 1 6.77 6.77 6.7 6.7 0 0 1-1.89 4.92 6.5 6.5 0 0 1-4.88 1.94 6.63 6.63 0 0 1-6.87-6.86A6.5 6.5 0 0 1 180.97 0" clip-rule="evenodd" style="fill:white;fill-opacity:1;"/></svg>